<svg width="16" height="22" viewBox="0 0 16 22" fill="none" xmlns="http://www.w3.org/2000/svg">
<path id="Vector" d="M7.13534 21.2514C1.1171 12.3285 0 11.4127 0 8.13338C0 3.64142 3.5605 0 7.95264 0C12.3448 0 15.9053 3.64142 15.9053 8.13338C15.9053 11.4127 14.7882 12.3285 8.76994 21.2514C8.375 21.8349 7.53024 21.8349 7.13534 21.2514ZM7.95264 11.5223C9.7827 11.5223 11.2662 10.005 11.2662 8.13338C11.2662 6.26173 9.7827 4.74447 7.95264 4.74447C6.12258 4.74447 4.63904 6.26173 4.63904 8.13338C4.63904 10.005 6.12258 11.5223 7.95264 11.5223Z" fill="white"/>
</svg>
