<svg width="13" height="12" viewBox="0 0 13 12" fill="none" xmlns="http://www.w3.org/2000/svg">
<g id="Group">
<path id="Vector" d="M4.79412 3.52941V2.26471C4.79412 1.92929 4.92736 1.6076 5.16454 1.37042C5.40172 1.13325 5.7234 1 6.05882 1H10.4853C10.8207 1 11.1424 1.13325 11.3796 1.37042C11.6168 1.6076 11.75 1.92929 11.75 2.26471V9.85294C11.75 10.1884 11.6168 10.51 11.3796 10.7472C11.1424 10.9844 10.8207 11.1176 10.4853 11.1176H6.05882C5.7234 11.1176 5.40172 10.9844 5.16454 10.7472C4.92736 10.51 4.79412 10.1884 4.79412 9.85294V8.58824" stroke="#111111" stroke-linecap="round" stroke-linejoin="round"/>
<path id="Vector_2" d="M0.999993 6.0588H9.22058L7.32352 4.16174M7.32352 7.95586L9.22058 6.0588" stroke="#111111" stroke-linecap="round" stroke-linejoin="round"/>
</g>
</svg>
