<svg width="19" height="17" viewBox="0 0 19 17" fill="none" xmlns="http://www.w3.org/2000/svg">
<path id="Vector" d="M18.441 6.1378C18.5842 6.0094 18.7972 6.12951 18.7972 6.33247V14.8029C18.7972 15.9005 18.0078 16.791 17.0349 16.791H1.76223C0.789334 16.791 0 15.9005 0 14.8029V6.33661C0 6.12951 0.209265 6.01354 0.356118 6.14194C1.17849 6.86265 2.26888 7.77803 6.01362 10.8473C6.78827 11.4851 8.09526 12.8271 9.39858 12.8188C10.7092 12.8313 12.0419 11.4603 12.7872 10.8473C16.5319 7.77803 17.6187 6.85851 18.441 6.1378ZM9.39858 11.4893C10.2503 11.5058 11.4765 10.2798 12.0933 9.77448C16.9652 5.78573 17.336 5.4378 18.4594 4.44372C18.6723 4.25733 18.7972 3.96739 18.7972 3.66088V2.8739C18.7972 1.77627 18.0078 0.885742 17.0349 0.885742H1.76223C0.789334 0.885742 0 1.77627 0 2.8739V3.66088C0 3.96739 0.124825 4.25319 0.337761 4.44372C1.46118 5.43366 1.83199 5.78573 6.70383 9.77448C7.32061 10.2798 8.54683 11.5058 9.39858 11.4893Z" fill="white"/>
</svg>
