<svg width="19" height="19" viewBox="0 0 19 19" fill="none" xmlns="http://www.w3.org/2000/svg">
<path id="Vector" d="M18.1143 0.903522L14.2962 0.0224245C13.8814 -0.0730278 13.4555 0.143575 13.2866 0.532727L11.5244 4.64452C11.3702 5.0043 11.473 5.42649 11.7777 5.67246L14.0025 7.4934C12.6809 10.3092 10.3716 12.6515 7.49706 13.9988L5.67613 11.7741C5.42648 11.4694 5.00796 11.3666 4.64818 11.5208L0.536384 13.2829C0.143561 13.4555 -0.0730425 13.8814 0.0224099 14.2962L0.903508 18.1143C0.99529 18.5108 1.34773 18.7972 1.76258 18.7972C11.1646 18.7972 18.7972 11.1793 18.7972 1.76259C18.7972 1.35141 18.5145 0.995303 18.1143 0.903522Z" fill="white"/>
</svg>
